<svg xmlns="http://www.w3.org/2000/svg" version="1.1" xmlns:xlink="http://www.w3.org/1999/xlink" xmlns:svgjs="http://svgjs.dev/svgjs" viewBox="0 0 2400 800"><g fill="#181921ff" transform="matrix(1,0,0,1,10.8282470703125,299.0880355834961)"><path d="M-10,10C33.75,16.041666666666664,114.58333333333334,49,200,39C285.41666666666663,29,316.66666666666663,-34.25,400,-38C483.33333333333337,-41.75,516.6666666666666,15.583333333333334,600,21C683.3333333333334,26.416666666666664,716.6666666666666,-18.666666666666664,800,-12C883.3333333333334,-5.333333333333334,916.6666666666666,56.958333333333336,1000,53C1083.3333333333333,49.041666666666664,1116.6666666666667,-27.25,1200,-31C1283.3333333333333,-34.75,1316.6666666666667,32.5,1400,35C1483.3333333333333,37.5,1516.6666666666667,-20.458333333333332,1600,-19C1683.3333333333333,-17.541666666666668,1716.6666666666667,43.458333333333336,1800,42C1883.3333333333333,40.541666666666664,1916.6666666666667,-28.083333333333332,2000,-26C2083.3333333333335,-23.916666666666668,2118.75,44.5,2200,52C2281.25,59.5,2296.25,-62.5,2390,10C2483.75,82.5,3252.0833333333335,214.58333333333331,2650,400C2047.9166666666665,585.4166666666667,156.25,795.8333333333334,-500,900" transform="matrix(1,0,0,1,0,35)" opacity="0.05"></path><path d="M-10,10C33.75,16.041666666666664,114.58333333333334,49,200,39C285.41666666666663,29,316.66666666666663,-34.25,400,-38C483.33333333333337,-41.75,516.6666666666666,15.583333333333334,600,21C683.3333333333334,26.416666666666664,716.6666666666666,-18.666666666666664,800,-12C883.3333333333334,-5.333333333333334,916.6666666666666,56.958333333333336,1000,53C1083.3333333333333,49.041666666666664,1116.6666666666667,-27.25,1200,-31C1283.3333333333333,-34.75,1316.6666666666667,32.5,1400,35C1483.3333333333333,37.5,1516.6666666666667,-20.458333333333332,1600,-19C1683.3333333333333,-17.541666666666668,1716.6666666666667,43.458333333333336,1800,42C1883.3333333333333,40.541666666666664,1916.6666666666667,-28.083333333333332,2000,-26C2083.3333333333335,-23.916666666666668,2118.75,44.5,2200,52C2281.25,59.5,2296.25,-62.5,2390,10C2483.75,82.5,3252.0833333333335,214.58333333333331,2650,400C2047.9166666666665,585.4166666666667,156.25,795.8333333333334,-500,900" transform="matrix(1,0,0,1,0,70)" opacity="0.53"></path><path d="M-10,10C33.75,16.041666666666664,114.58333333333334,49,200,39C285.41666666666663,29,316.66666666666663,-34.25,400,-38C483.33333333333337,-41.75,516.6666666666666,15.583333333333334,600,21C683.3333333333334,26.416666666666664,716.6666666666666,-18.666666666666664,800,-12C883.3333333333334,-5.333333333333334,916.6666666666666,56.958333333333336,1000,53C1083.3333333333333,49.041666666666664,1116.6666666666667,-27.25,1200,-31C1283.3333333333333,-34.75,1316.6666666666667,32.5,1400,35C1483.3333333333333,37.5,1516.6666666666667,-20.458333333333332,1600,-19C1683.3333333333333,-17.541666666666668,1716.6666666666667,43.458333333333336,1800,42C1883.3333333333333,40.541666666666664,1916.6666666666667,-28.083333333333332,2000,-26C2083.3333333333335,-23.916666666666668,2118.75,44.5,2200,52C2281.25,59.5,2296.25,-62.5,2390,10C2483.75,82.5,3252.0833333333335,214.58333333333331,2650,400C2047.9166666666665,585.4166666666667,156.25,795.8333333333334,-500,900" transform="matrix(1,0,0,1,0,105)" opacity="1.00"></path></g></svg>